# xmcd
#
# Track frame offsets:
#	150
#	20886
#	36995
#	55054
#	74103
#	95580
#	114122
#	130279
#	149558
#	169497
#	190016
#	211318
#	233632
#	250530
#	265542
#	285755
#	304928
#	319322
#
# Disc length: 4459 seconds
#
# Revision: 1
# Processed by: cddbd v1.5.2PL0 Copyright (c) Steve Scherf et al.
# Submitted via: audiograbber 1.83.01
#
DISCID=09116912
DTITLE=Various Artist - New Country Giants Vol. 1
DYEAR=2004
DGENRE=Country
TTITLE0=Vince Gill - The Farmer's Daughter
TTITLE1=Emmylou Harris - Mama's Hungry Eyes
TTITLE2=Bryan Ferry - He'll Have To Go
TTITLE3=Pam Tillis - Silver Wings
TTITLE4=Watson T. Brown - Searching For A Star
TTITLE5=Patty Loveless - Don't Toss Us Away
TTITLE6=George Jones and Alan Jackson - A Good Year For The Roses
TTITLE7=Carlene Carter - World Of Miracles
TTITLE8=Neil Young - Unknow Legend
TTITLE9=Dolly Parton and Allison Kraus - Just When I Needed You Most
TTITLE10=John 'Cougar' Mellencamp - Cherry Bomb
TTITLE11=LeAnn Rimes - How Do I Live
TTITLE12=Brooks and Dunn - A Few Goods Rides Away
TTITLE13=Michelle Shocked - Anchorage
TTITLE14=Garth Brooks - Cowboy Bill
TTITLE15=Reba Mcentire - 500 Miles Away From Home
TTITLE16=Lyle Lovett - L.a. County
TTITLE17=Lorrie Morgan - I Threw Away The Roses
EXTD=
EXTT0=
EXTT1=
EXTT2=
EXTT3=
EXTT4=
EXTT5=
EXTT6=
EXTT7=
EXTT8=
EXTT9=
EXTT10=
EXTT11=
EXTT12=
EXTT13=
EXTT14=
EXTT15=
EXTT16=
EXTT17=
PLAYORDER=
